<?xml version="1.0" encoding="utf-8"?>
<!-- Generator: Adobe Illustrator 17.0.0, SVG Export Plug-In . SVG Version: 6.00 Build 0)  -->
<!DOCTYPE svg PUBLIC "-//W3C//DTD SVG 1.1//EN" "http://www.w3.org/Graphics/SVG/1.1/DTD/svg11.dtd">
<svg version="1.1" id="Layer_1" xmlns="http://www.w3.org/2000/svg" xmlns:xlink="http://www.w3.org/1999/xlink" x="0px" y="0px"
	 width="403px" height="40.003px" viewBox="0 0 403 40.003" enable-background="new 0 0 403 40.003" xml:space="preserve">
<g>
	<g>
		<path fill="#FFFFFF" d="M179.02,40.003h1.158V0h-1.158V40.003z M203.016,26.593h1.158v-13.51h-1.158V26.593z M245.064,13.083
			h-1.158v13.509h7.898V25.51h-6.741V13.083H245.064z M290.442,13.083h-1.158v13.509h7.898V25.51h-6.74L290.442,13.083
			L290.442,13.083z M342.528,21.409c0,2.796-1.453,4.336-4.09,4.336s-4.089-1.54-4.089-4.336v-8.325h-1.158v8.325
			c0,3.444,1.912,5.419,5.247,5.419c3.335,0,5.248-1.974,5.248-5.419v-8.325h-1.158L342.528,21.409L342.528,21.409z M393.544,13.083
			l-4.778,11.241l-4.777-11.241h-1.457v13.509h1.158V15.329l4.777,11.205l0.026,0.059h0.545l4.803-11.264v11.264H395v-13.51H393.544
			z M52.157,2.558h-8.336c-0.657,0-1.492,0.432-1.858,0.963l-5.248,7.335c-0.367,0.529-0.971,0.529-1.338,0L30.06,3.508
			c-0.368-0.527-1.206-0.959-1.862-0.957l-7.962,0.007c-0.656,0-0.893,0.432-0.526,0.961l10.118,14.549
			c0.367,0.528,0.852,1.448,1.078,2.044c0,0,0.495,1.313,0.495,2.374l0.014,13.538c0.001,0.636,0.538,1.155,1.195,1.153l6.905-0.018
			c0.657-0.003,1.192-0.525,1.189-1.161V22.486c0-1.061,0.496-2.414,0.496-2.414c0.22-0.602,0.707-1.519,1.082-2.041L52.669,3.508
			C53.043,2.986,52.814,2.558,52.157,2.558z M79.919,2.592L57.677,2.586c-0.657-0.002-1.195,0.518-1.196,1.154v5.242
			c-0.002,0.636,0.535,1.156,1.19,1.154l5.281-0.012c0.657-0.002,1.193,0.517,1.193,1.154v24.73c0,0.636,0.537,1.156,1.193,1.156
			h6.918c0.656,0,1.193-0.52,1.193-1.156v-24.73c0-0.637,0.538-1.158,1.193-1.158l5.281,0.002c0.657,0.002,1.194-0.52,1.194-1.156
			L81.115,3.75C81.112,3.112,80.577,2.594,79.919,2.592z M19.12,29.588l-8.679,0.003c-0.656,0-1.193-0.521-1.193-1.157V3.716
			c0-0.637-0.536-1.158-1.193-1.158l-6.86-0.007C0.537,2.549,0,3.071,0,3.707v32.317c0,0.636,0.537,1.155,1.194,1.155H19.12
			c0.657,0,1.194-0.519,1.194-1.155v-5.278C20.314,30.11,19.776,29.588,19.12,29.588z M107.73,23.049
			c2.73-1.233,4.049-1.783,5.764-4.663c0.945-1.727,1.501-3.671,1.501-5.665c0-6.259-4.452-10.145-11.577-10.145L89.791,2.558
			c-0.656,0-1.194,0.52-1.196,1.158v32.296c0.002,0.636,0.544,1.154,1.199,1.152h6.904c0.658-0.002,1.187-0.525,1.176-1.161v-12.45
			l9.155,12.454c0.381,0.518,0.843,1.157,2.044,1.155l8.38-0.014c0.656-0.002,0.7-0.634,0.304-1.142L107.73,23.049z M101.091,18.181
			l-3.231,0.005V9.773h3.386c4.006,0,4.91,1.908,4.91,4.204C106.156,16.276,105.096,18.181,101.091,18.181z M139.512,2.323
			c-9.998,0-18.103,7.859-18.103,17.552c0,9.694,8.105,17.552,18.103,17.552c10.002,0,18.103-7.858,18.103-17.552
			C157.616,10.182,149.514,2.323,139.512,2.323z M147.912,25.59c0,1.336-1.124,2.428-2.5,2.428h-11.793
			c-1.377,0-2.507-1.092-2.507-2.428V14.16c0-1.336,1.13-2.426,2.507-2.426h11.793c1.376,0,2.5,1.091,2.5,2.426V25.59z"/>
	</g>
</g>
</svg>
