<?xml version="1.0" encoding="utf-8"?>
<!-- Generator: Adobe Illustrator 17.0.0, SVG Export Plug-In . SVG Version: 6.00 Build 0)  -->
<!DOCTYPE svg PUBLIC "-//W3C//DTD SVG 1.1//EN" "http://www.w3.org/Graphics/SVG/1.1/DTD/svg11.dtd">
<svg version="1.1" id="Layer_1" xmlns="http://www.w3.org/2000/svg" xmlns:xlink="http://www.w3.org/1999/xlink" x="0px" y="0px"
	 width="29px" height="20px" viewBox="0 0 29 20" enable-background="new 0 0 29 20" xml:space="preserve">
<g id="Layer_2" opacity="0.01">
	<rect opacity="0.1" fill="#66CBE0" enable-background="new    " width="29" height="20"/>
</g>
<g id="Layer_1_1_">
	<g>
		<g>
			<path fill="#FFFFFF" d="M27.329,0H1.671C0.748,0,0,0.748,0,1.671v0.001c0,0.923,0.748,1.671,1.671,1.671h25.658
				C28.252,3.344,29,2.595,29,1.673V1.671C29,0.748,28.252,0,27.329,0z M27.329,8.328H1.671C0.748,8.328,0,9.076,0,10v0.001
				c0,0.923,0.748,1.671,1.671,1.671h25.658c0.923,0,1.671-0.748,1.671-1.671V10C29,9.076,28.252,8.328,27.329,8.328z
				 M27.329,16.656H1.671C0.748,16.656,0,17.405,0,18.328v0.001C0,19.252,0.748,20,1.671,20h25.658C28.252,20,29,19.252,29,18.329
				v-0.001C29,17.405,28.252,16.656,27.329,16.656z"/>
		</g>
	</g>
</g>
</svg>
