<?xml version="1.0" encoding="utf-8"?>
<!-- Generator: Adobe Illustrator 17.0.0, SVG Export Plug-In . SVG Version: 6.00 Build 0)  -->
<!DOCTYPE svg PUBLIC "-//W3C//DTD SVG 1.1//EN" "http://www.w3.org/Graphics/SVG/1.1/DTD/svg11.dtd">
<svg version="1.1" id="Layer_1" xmlns="http://www.w3.org/2000/svg" xmlns:xlink="http://www.w3.org/1999/xlink" x="0px" y="0px"
	 width="46px" height="46px" viewBox="0 0 46 46" enable-background="new 0 0 46 46" xml:space="preserve">
<g>
	<g opacity="0.5">
		<path fill="#67BAE6" d="M23,4c10.493,0,19,8.507,19,19c0,10.493-8.507,19-19,19S4,33.493,4,23C4,12.507,12.507,4,23,4 M23,1
			C10.869,1,1,10.869,1,23c0,12.131,9.869,22,22,22s22-9.869,22-22C45,10.869,35.131,1,23,1L23,1z"/>
	</g>
	<path fill="#00AED6" d="M22.998,30.142l-9.041-11.763h18.083L22.998,30.142z"/>
</g>
</svg>
