<?xml version="1.0" encoding="utf-8"?>
<!-- Generator: Adobe Illustrator 17.0.0, SVG Export Plug-In . SVG Version: 6.00 Build 0)  -->
<!DOCTYPE svg PUBLIC "-//W3C//DTD SVG 1.1//EN" "http://www.w3.org/Graphics/SVG/1.1/DTD/svg11.dtd">
<svg version="1.1" id="Layer_1" xmlns="http://www.w3.org/2000/svg" xmlns:xlink="http://www.w3.org/1999/xlink" x="0px" y="0px"
	 width="172px" height="57px" viewBox="0 0 172 57" enable-background="new 0 0 172 57" xml:space="preserve">
<g>
	<g>
		<path fill-rule="evenodd" clip-rule="evenodd" fill="#FFFFFF" d="M162.314,2.505H125.8c-3.97,0-7.186,3.299-7.186,7.366v37.26
			c0,4.067,3.216,7.37,7.186,7.37h36.514c3.969,0,7.186-3.302,7.186-7.37V9.871C169.5,5.804,166.283,2.505,162.314,2.505z
			 M152.53,10.902c0-0.817,0.647-1.48,1.441-1.48h7.329c0.795,0,1.442,0.662,1.442,1.48v7.477c0,0.816-0.647,1.476-1.442,1.476
			h-7.329c-0.794,0-1.441-0.66-1.441-1.476V10.902z M136.641,28.503c1.181-3.015,4.057-5.152,7.418-5.152
			c3.356,0,6.234,2.136,7.412,5.152c0.368,0.937,0.571,1.959,0.571,3.03c0,4.518-3.582,8.191-7.983,8.191
			c-4.406,0-7.99-3.673-7.99-8.191C136.07,30.462,136.275,29.44,136.641,28.503z M164.64,47.13c0,1.317-1.043,2.388-2.326,2.388
			H125.8c-1.282,0-2.326-1.071-2.326-2.388V28.503h7.743c-0.221,0.977-0.339,1.991-0.339,3.03c0,7.454,5.911,13.516,13.182,13.516
			c7.266,0,13.178-6.061,13.178-13.516c0-1.039-0.12-2.053-0.34-3.03h7.742V47.13z M111.672,7.925
			c-2.154,1.27-4.539,2.193-7.079,2.69c-2.032-2.158-4.93-3.498-8.135-3.498c-6.157,0-11.15,4.96-11.15,11.084
			c0,0.868,0.099,1.716,0.289,2.527C76.332,20.264,68.118,15.85,62.62,9.143c-0.962,1.639-1.51,3.541-1.51,5.576
			c0,3.846,1.968,7.239,4.958,9.229c-1.825-0.064-3.546-0.558-5.048-1.386v0.137c0,5.37,3.84,9.851,8.941,10.87
			c-0.936,0.256-1.921,0.393-2.937,0.393c-0.716,0-1.416-0.073-2.098-0.203c1.419,4.403,5.536,7.611,10.415,7.696
			c-3.815,2.974-8.623,4.748-13.846,4.748c-0.899,0-1.786-0.051-2.659-0.151c4.935,3.143,10.795,4.979,17.089,4.979
			c20.504,0,31.718-16.894,31.718-31.547c0-0.482-0.01-0.96-0.033-1.432c2.179-1.562,4.069-3.518,5.563-5.738
			c-1.997,0.88-4.147,1.474-6.401,1.746C109.072,12.687,110.842,10.514,111.672,7.925z M47.181,2.5H9.847
			C5.79,2.5,2.5,5.798,2.5,9.867v37.256c0,4.07,3.29,7.368,7.347,7.368h37.333c4.058,0,7.347-3.298,7.347-7.368V9.867
			C54.528,5.798,51.239,2.5,47.181,2.5z M44.43,21.524l-0.475,6.245h-6.282v21.439h-8.024l-0.053-21.545h-4.224v-6.088h4.224
			c0,0,0-3.439,0-6.775c0-3.336,3.274-8.946,15.784-6.353l-1.108,6.565c0,0-6.546-1.799-6.546,1.534c0,3.335,0,4.978,0,4.978H44.43z
			"/>
	</g>
</g>
</svg>
