<?xml version="1.0" encoding="utf-8"?>
<!-- Generator: Adobe Illustrator 17.0.0, SVG Export Plug-In . SVG Version: 6.00 Build 0)  -->
<!DOCTYPE svg PUBLIC "-//W3C//DTD SVG 1.1//EN" "http://www.w3.org/Graphics/SVG/1.1/DTD/svg11.dtd">
<svg version="1.1" id="Layer_1" xmlns="http://www.w3.org/2000/svg" xmlns:xlink="http://www.w3.org/1999/xlink" x="0px" y="0px"
	 width="108px" height="37.859px" viewBox="0 0 108 37.859" enable-background="new 0 0 108 37.859" xml:space="preserve">
<g>
	<g>
		<path fill="#FFFFFF" d="M0.137,37.859h1.315v-8.302H0.137V37.859z M23.696,29.557h-1.314v8.302h4.981v-1.298h-3.667V29.557z
			 M48.382,29.557h-1.315v8.302h4.981v-1.298h-3.667V29.557z M76.034,34.593c0,1.394-0.633,2.101-1.883,2.101
			c-1.249,0-1.882-0.707-1.882-2.101v-5.036h-1.314v5.036c0,2.128,1.195,3.398,3.197,3.398c2.002,0,3.197-1.271,3.197-3.398v-5.036
			h-1.314V34.593z M101.53,35.334l-2.37-5.777h-1.364v8.302h1.315v-4.961l2.043,4.961h0.754l2.042-4.961v4.961h1.314v-8.302H103.9
			L101.53,35.334z M35.739,0.167h-5.712c-0.45,0-1.022,0.307-1.273,0.683l-3.596,5.208c-0.252,0.376-0.665,0.376-0.917,0
			l-3.643-5.217c-0.252-0.374-0.827-0.681-1.276-0.68l-5.456,0.005c-0.45,0-0.612,0.307-0.36,0.682l6.933,10.329
			c0.252,0.375,0.584,1.028,0.738,1.451c0,0,0.339,0.932,0.339,1.685l0.01,9.612c0.001,0.452,0.369,0.82,0.819,0.818l4.731-0.012
			c0.451-0.002,0.817-0.373,0.815-0.824v-9.593c0-0.753,0.34-1.714,0.34-1.714c0.151-0.427,0.485-1.078,0.741-1.448L36.09,0.841
			C36.346,0.471,36.189,0.167,35.739,0.167z M54.762,0.191L39.521,0.187c-0.45-0.002-0.819,0.368-0.819,0.819v3.721
			c-0.001,0.452,0.366,0.821,0.816,0.819l3.618-0.008c0.45-0.002,0.818,0.367,0.818,0.819v17.558c0,0.451,0.368,0.82,0.818,0.82
			h4.74c0.449,0,0.818-0.369,0.818-0.82V6.357c0-0.453,0.368-0.822,0.818-0.822l3.619,0.001c0.451,0.002,0.818-0.369,0.818-0.82
			l-0.003-3.703C55.579,0.56,55.212,0.192,54.762,0.191z M13.101,19.357L7.154,19.36c-0.449,0-0.818-0.37-0.818-0.822V0.988
			c0-0.453-0.368-0.822-0.818-0.822L0.818,0.162C0.368,0.16,0,0.531,0,0.982v22.944c0,0.452,0.368,0.82,0.818,0.82h12.283
			c0.45,0,0.818-0.368,0.818-0.82v-3.747C13.919,19.727,13.551,19.357,13.101,19.357z M73.818,14.715
			c1.871-0.876,2.775-1.266,3.949-3.311c0.647-1.227,1.028-2.607,1.028-4.022c0-4.444-3.051-7.203-7.933-7.203l-9.337-0.012
			c-0.449,0-0.818,0.369-0.819,0.822v22.929c0.001,0.451,0.372,0.82,0.822,0.818h4.731c0.451-0.001,0.813-0.373,0.806-0.824v-8.839
			l6.273,8.841c0.261,0.368,0.578,0.822,1.401,0.821l5.742-0.01c0.449-0.002,0.48-0.45,0.209-0.811L73.818,14.715z M69.269,11.259
			l-2.214,0.004V5.289h2.32c2.745,0,3.364,1.354,3.364,2.984C72.739,9.906,72.013,11.259,69.269,11.259z M108,12.461
			C108,5.58,102.449,0,95.596,0c-6.851,0-12.404,5.58-12.404,12.461c0,6.882,5.554,12.461,12.404,12.461
			C102.449,24.922,108,19.344,108,12.461z M101.351,16.519c0,0.948-0.771,1.723-1.713,1.723h-8.08c-0.944,0-1.718-0.775-1.718-1.723
			V8.403c0-0.948,0.774-1.722,1.718-1.722h8.08c0.943,0,1.713,0.774,1.713,1.722V16.519z"/>
	</g>
</g>
</svg>
